<mxfile host="NlF">
  <diagram id="V84" name="Style-Plain">
    <mxGraphModel dx="0" dy="0" background="#FFFAFA" grid="0" gridSize="10" guides="1" tooltips="1" connect="1" arrows="1" fold="1" page="1" pageScale="1" pageWidth="1169" pageHeight="827" math="0" shadow="0">
      <root>
        <mxCell id="page_root_V84" parent="V84"/>
        <mxCell id="node_root_V84" parent="page_root_V84"/>
        <mxCell id="0" value="none" style="whiteSpace=wrap;html=1;fillColor=#f5f5f5;strokeColor=#666666;fontColor=#000000;gradient=#b3b3b3;ellipse" vertex="1" parent="node_root_V84">
          <mxGeometry x="35" y="10" width="100" height="100" as="geometry"/>
        </mxCell>
        <mxCell id="100" value="none" style="whiteSpace=wrap;html=1;fillColor=#f5f5f5;strokeColor=#666666;fontColor=#000000;gradient=#b3b3b3;ellipse" vertex="1" parent="node_root_V84">
          <mxGeometry x="180" y="10" width="150" height="100" as="geometry"/>
        </mxCell>
        <mxCell id="1" value="box" style="whiteSpace=wrap;html=1;fillColor=#f5f5f5;strokeColor=#666666;fontColor=#000000;gradient=#b3b3b3;ellipse" vertex="1" parent="node_root_V84">
          <mxGeometry x="375" y="10" width="100" height="100" as="geometry"/>
        </mxCell>
        <mxCell id="101" value="box" style="whiteSpace=wrap;html=1;fillColor=#f5f5f5;strokeColor=#666666;fontColor=#000000;gradient=#b3b3b3;ellipse" vertex="1" parent="node_root_V84">
          <mxGeometry x="520" y="10" width="150" height="100" as="geometry"/>
        </mxCell>
        <mxCell id="2" value="open_box" style="whiteSpace=wrap;html=1;fillColor=#f5f5f5;strokeColor=#666666;fontColor=#000000;gradient=#b3b3b3;ellipse" vertex="1" parent="node_root_V84">
          <mxGeometry x="715" y="10" width="100" height="100" as="geometry"/>
        </mxCell>
        <mxCell id="102" value="open_box" style="whiteSpace=wrap;html=1;fillColor=#f5f5f5;strokeColor=#666666;fontColor=#000000;gradient=#b3b3b3;ellipse" vertex="1" parent="node_root_V84">
          <mxGeometry x="860" y="10" width="150" height="100" as="geometry"/>
        </mxCell>
        <mxCell id="3" value="simple" style="whiteSpace=wrap;html=1;fillColor=#f5f5f5;strokeColor=#666666;fontColor=#000000;gradient=#b3b3b3;ellipse" vertex="1" parent="node_root_V84">
          <mxGeometry x="1055" y="10" width="100" height="100" as="geometry"/>
        </mxCell>
        <mxCell id="103" value="simple" style="whiteSpace=wrap;html=1;fillColor=#f5f5f5;strokeColor=#666666;fontColor=#000000;gradient=#b3b3b3;ellipse" vertex="1" parent="node_root_V84">
          <mxGeometry x="1200" y="10" width="150" height="100" as="geometry"/>
        </mxCell>
        <mxCell id="4" value="simple_thin" style="whiteSpace=wrap;html=1;fillColor=#f5f5f5;strokeColor=#666666;fontColor=#000000;gradient=#b3b3b3;ellipse" vertex="1" parent="node_root_V84">
          <mxGeometry x="1395" y="10" width="100" height="100" as="geometry"/>
        </mxCell>
        <mxCell id="104" value="simple_thin" style="whiteSpace=wrap;html=1;fillColor=#f5f5f5;strokeColor=#666666;fontColor=#000000;gradient=#b3b3b3;ellipse" vertex="1" parent="node_root_V84">
          <mxGeometry x="1540" y="10" width="150" height="100" as="geometry"/>
        </mxCell>
        <mxCell id="5" value="arrow" style="whiteSpace=wrap;html=1;fillColor=#f5f5f5;strokeColor=#666666;fontColor=#000000;gradient=#b3b3b3;ellipse" vertex="1" parent="node_root_V84">
          <mxGeometry x="35" y="130" width="100" height="100" as="geometry"/>
        </mxCell>
        <mxCell id="105" value="arrow" style="whiteSpace=wrap;html=1;fillColor=#f5f5f5;strokeColor=#666666;fontColor=#000000;gradient=#b3b3b3;ellipse" vertex="1" parent="node_root_V84">
          <mxGeometry x="180" y="130" width="150" height="100" as="geometry"/>
        </mxCell>
        <mxCell id="6" value="open_arrow" style="whiteSpace=wrap;html=1;fillColor=#f5f5f5;strokeColor=#666666;fontColor=#000000;gradient=#b3b3b3;ellipse" vertex="1" parent="node_root_V84">
          <mxGeometry x="375" y="130" width="100" height="100" as="geometry"/>
        </mxCell>
        <mxCell id="106" value="open_arrow" style="whiteSpace=wrap;html=1;fillColor=#f5f5f5;strokeColor=#666666;fontColor=#000000;gradient=#b3b3b3;ellipse" vertex="1" parent="node_root_V84">
          <mxGeometry x="520" y="130" width="150" height="100" as="geometry"/>
        </mxCell>
        <mxCell id="7" value="arrow_thin" style="whiteSpace=wrap;html=1;fillColor=#f5f5f5;strokeColor=#666666;fontColor=#000000;gradient=#b3b3b3;ellipse" vertex="1" parent="node_root_V84">
          <mxGeometry x="715" y="130" width="100" height="100" as="geometry"/>
        </mxCell>
        <mxCell id="107" value="arrow_thin" style="whiteSpace=wrap;html=1;fillColor=#f5f5f5;strokeColor=#666666;fontColor=#000000;gradient=#b3b3b3;ellipse" vertex="1" parent="node_root_V84">
          <mxGeometry x="860" y="130" width="150" height="100" as="geometry"/>
        </mxCell>
        <mxCell id="8" value="open_arrow_thin" style="whiteSpace=wrap;html=1;fillColor=#f5f5f5;strokeColor=#666666;fontColor=#000000;gradient=#b3b3b3;ellipse" vertex="1" parent="node_root_V84">
          <mxGeometry x="1055" y="130" width="100" height="100" as="geometry"/>
        </mxCell>
        <mxCell id="108" value="open_arrow_thin" style="whiteSpace=wrap;html=1;fillColor=#f5f5f5;strokeColor=#666666;fontColor=#000000;gradient=#b3b3b3;ellipse" vertex="1" parent="node_root_V84">
          <mxGeometry x="1200" y="130" width="150" height="100" as="geometry"/>
        </mxCell>
        <mxCell id="9" value="arrow_double" style="whiteSpace=wrap;html=1;fillColor=#f5f5f5;strokeColor=#666666;fontColor=#000000;gradient=#b3b3b3;ellipse" vertex="1" parent="node_root_V84">
          <mxGeometry x="1395" y="130" width="100" height="100" as="geometry"/>
        </mxCell>
        <mxCell id="109" value="arrow_double" style="whiteSpace=wrap;html=1;fillColor=#f5f5f5;strokeColor=#666666;fontColor=#000000;gradient=#b3b3b3;ellipse" vertex="1" parent="node_root_V84">
          <mxGeometry x="1540" y="130" width="150" height="100" as="geometry"/>
        </mxCell>
        <mxCell id="10" value="open_arrow_double" style="whiteSpace=wrap;html=1;fillColor=#f5f5f5;strokeColor=#666666;fontColor=#000000;gradient=#b3b3b3;ellipse" vertex="1" parent="node_root_V84">
          <mxGeometry x="35" y="250" width="100" height="100" as="geometry"/>
        </mxCell>
        <mxCell id="110" value="open_arrow_double" style="whiteSpace=wrap;html=1;fillColor=#f5f5f5;strokeColor=#666666;fontColor=#000000;gradient=#b3b3b3;ellipse" vertex="1" parent="node_root_V84">
          <mxGeometry x="180" y="250" width="150" height="100" as="geometry"/>
        </mxCell>
        <mxCell id="11" value="diamond" style="whiteSpace=wrap;html=1;fillColor=#f5f5f5;strokeColor=#666666;fontColor=#000000;gradient=#b3b3b3;ellipse" vertex="1" parent="node_root_V84">
          <mxGeometry x="375" y="250" width="100" height="100" as="geometry"/>
        </mxCell>
        <mxCell id="111" value="diamond" style="whiteSpace=wrap;html=1;fillColor=#f5f5f5;strokeColor=#666666;fontColor=#000000;gradient=#b3b3b3;ellipse" vertex="1" parent="node_root_V84">
          <mxGeometry x="520" y="250" width="150" height="100" as="geometry"/>
        </mxCell>
        <mxCell id="12" value="open_diamond" style="whiteSpace=wrap;html=1;fillColor=#f5f5f5;strokeColor=#666666;fontColor=#000000;gradient=#b3b3b3;ellipse" vertex="1" parent="node_root_V84">
          <mxGeometry x="715" y="250" width="100" height="100" as="geometry"/>
        </mxCell>
        <mxCell id="112" value="open_diamond" style="whiteSpace=wrap;html=1;fillColor=#f5f5f5;strokeColor=#666666;fontColor=#000000;gradient=#b3b3b3;ellipse" vertex="1" parent="node_root_V84">
          <mxGeometry x="860" y="250" width="150" height="100" as="geometry"/>
        </mxCell>
        <mxCell id="13" value="diamond_thin" style="whiteSpace=wrap;html=1;fillColor=#f5f5f5;strokeColor=#666666;fontColor=#000000;gradient=#b3b3b3;ellipse" vertex="1" parent="node_root_V84">
          <mxGeometry x="1055" y="250" width="100" height="100" as="geometry"/>
        </mxCell>
        <mxCell id="113" value="diamond_thin" style="whiteSpace=wrap;html=1;fillColor=#f5f5f5;strokeColor=#666666;fontColor=#000000;gradient=#b3b3b3;ellipse" vertex="1" parent="node_root_V84">
          <mxGeometry x="1200" y="250" width="150" height="100" as="geometry"/>
        </mxCell>
        <mxCell id="14" value="open_diamond_thin" style="whiteSpace=wrap;html=1;fillColor=#f5f5f5;strokeColor=#666666;fontColor=#000000;gradient=#b3b3b3;ellipse" vertex="1" parent="node_root_V84">
          <mxGeometry x="1395" y="250" width="100" height="100" as="geometry"/>
        </mxCell>
        <mxCell id="114" value="open_diamond_thin" style="whiteSpace=wrap;html=1;fillColor=#f5f5f5;strokeColor=#666666;fontColor=#000000;gradient=#b3b3b3;ellipse" vertex="1" parent="node_root_V84">
          <mxGeometry x="1540" y="250" width="150" height="100" as="geometry"/>
        </mxCell>
        <mxCell id="15" value="circle" style="whiteSpace=wrap;html=1;fillColor=#f5f5f5;strokeColor=#666666;fontColor=#000000;gradient=#b3b3b3;ellipse" vertex="1" parent="node_root_V84">
          <mxGeometry x="35" y="370" width="100" height="100" as="geometry"/>
        </mxCell>
        <mxCell id="115" value="circle" style="whiteSpace=wrap;html=1;fillColor=#f5f5f5;strokeColor=#666666;fontColor=#000000;gradient=#b3b3b3;ellipse" vertex="1" parent="node_root_V84">
          <mxGeometry x="180" y="370" width="150" height="100" as="geometry"/>
        </mxCell>
        <mxCell id="16" value="open_circle" style="whiteSpace=wrap;html=1;fillColor=#f5f5f5;strokeColor=#666666;fontColor=#000000;gradient=#b3b3b3;ellipse" vertex="1" parent="node_root_V84">
          <mxGeometry x="375" y="370" width="100" height="100" as="geometry"/>
        </mxCell>
        <mxCell id="116" value="open_circle" style="whiteSpace=wrap;html=1;fillColor=#f5f5f5;strokeColor=#666666;fontColor=#000000;gradient=#b3b3b3;ellipse" vertex="1" parent="node_root_V84">
          <mxGeometry x="520" y="370" width="150" height="100" as="geometry"/>
        </mxCell>
        <mxCell id="17" value="half_circle" style="whiteSpace=wrap;html=1;fillColor=#f5f5f5;strokeColor=#666666;fontColor=#000000;gradient=#b3b3b3;ellipse" vertex="1" parent="node_root_V84">
          <mxGeometry x="715" y="370" width="100" height="100" as="geometry"/>
        </mxCell>
        <mxCell id="117" value="half_circle" style="whiteSpace=wrap;html=1;fillColor=#f5f5f5;strokeColor=#666666;fontColor=#000000;gradient=#b3b3b3;ellipse" vertex="1" parent="node_root_V84">
          <mxGeometry x="860" y="370" width="150" height="100" as="geometry"/>
        </mxCell>
        <mxCell id="18" value="plus_circle" style="whiteSpace=wrap;html=1;fillColor=#f5f5f5;strokeColor=#666666;fontColor=#000000;gradient=#b3b3b3;ellipse" vertex="1" parent="node_root_V84">
          <mxGeometry x="1055" y="370" width="100" height="100" as="geometry"/>
        </mxCell>
        <mxCell id="118" value="plus_circle" style="whiteSpace=wrap;html=1;fillColor=#f5f5f5;strokeColor=#666666;fontColor=#000000;gradient=#b3b3b3;ellipse" vertex="1" parent="node_root_V84">
          <mxGeometry x="1200" y="370" width="150" height="100" as="geometry"/>
        </mxCell>
        <mxCell id="19" value="open_plus_circle" style="whiteSpace=wrap;html=1;fillColor=#f5f5f5;strokeColor=#666666;fontColor=#000000;gradient=#b3b3b3;ellipse" vertex="1" parent="node_root_V84">
          <mxGeometry x="1395" y="370" width="100" height="100" as="geometry"/>
        </mxCell>
        <mxCell id="119" value="open_plus_circle" style="whiteSpace=wrap;html=1;fillColor=#f5f5f5;strokeColor=#666666;fontColor=#000000;gradient=#b3b3b3;ellipse" vertex="1" parent="node_root_V84">
          <mxGeometry x="1540" y="370" width="150" height="100" as="geometry"/>
        </mxCell>
        <mxCell id="20" value="cross" style="whiteSpace=wrap;html=1;fillColor=#f5f5f5;strokeColor=#666666;fontColor=#000000;gradient=#b3b3b3;ellipse" vertex="1" parent="node_root_V84">
          <mxGeometry x="35" y="490" width="100" height="100" as="geometry"/>
        </mxCell>
        <mxCell id="120" value="cross" style="whiteSpace=wrap;html=1;fillColor=#f5f5f5;strokeColor=#666666;fontColor=#000000;gradient=#b3b3b3;ellipse" vertex="1" parent="node_root_V84">
          <mxGeometry x="180" y="490" width="150" height="100" as="geometry"/>
        </mxCell>
        <mxCell id="21" value="short" style="whiteSpace=wrap;html=1;fillColor=#f5f5f5;strokeColor=#666666;fontColor=#000000;gradient=#b3b3b3;ellipse" vertex="1" parent="node_root_V84">
          <mxGeometry x="375" y="490" width="100" height="100" as="geometry"/>
        </mxCell>
        <mxCell id="121" value="short" style="whiteSpace=wrap;html=1;fillColor=#f5f5f5;strokeColor=#666666;fontColor=#000000;gradient=#b3b3b3;ellipse" vertex="1" parent="node_root_V84">
          <mxGeometry x="520" y="490" width="150" height="100" as="geometry"/>
        </mxCell>
        <mxCell id="22" value="open_short" style="whiteSpace=wrap;html=1;fillColor=#f5f5f5;strokeColor=#666666;fontColor=#000000;gradient=#b3b3b3;ellipse" vertex="1" parent="node_root_V84">
          <mxGeometry x="715" y="490" width="100" height="100" as="geometry"/>
        </mxCell>
        <mxCell id="122" value="open_short" style="whiteSpace=wrap;html=1;fillColor=#f5f5f5;strokeColor=#666666;fontColor=#000000;gradient=#b3b3b3;ellipse" vertex="1" parent="node_root_V84">
          <mxGeometry x="860" y="490" width="150" height="100" as="geometry"/>
        </mxCell>
        <mxCell id="23" value="default" style="whiteSpace=wrap;html=1;fillColor=#f5f5f5;strokeColor=#666666;fontColor=#000000;gradient=#b3b3b3;ellipse" vertex="1" parent="node_root_V84">
          <mxGeometry x="1055" y="490" width="100" height="100" as="geometry"/>
        </mxCell>
        <mxCell id="123" value="default" style="whiteSpace=wrap;html=1;fillColor=#f5f5f5;strokeColor=#666666;fontColor=#000000;gradient=#b3b3b3;ellipse" vertex="1" parent="node_root_V84">
          <mxGeometry x="1200" y="490" width="150" height="100" as="geometry"/>
        </mxCell>
        <mxCell id="24" value="open_default" style="whiteSpace=wrap;html=1;fillColor=#f5f5f5;strokeColor=#666666;fontColor=#000000;gradient=#b3b3b3;ellipse" vertex="1" parent="node_root_V84">
          <mxGeometry x="1395" y="490" width="100" height="100" as="geometry"/>
        </mxCell>
        <mxCell id="124" value="open_default" style="whiteSpace=wrap;html=1;fillColor=#f5f5f5;strokeColor=#666666;fontColor=#000000;gradient=#b3b3b3;ellipse" vertex="1" parent="node_root_V84">
          <mxGeometry x="1540" y="490" width="150" height="100" as="geometry"/>
        </mxCell>
        <mxCell id="25" value="open_none" style="whiteSpace=wrap;html=1;fillColor=#f5f5f5;strokeColor=#666666;fontColor=#000000;gradient=#b3b3b3;ellipse" vertex="1" parent="node_root_V84">
          <mxGeometry x="35" y="610" width="100" height="100" as="geometry"/>
        </mxCell>
        <mxCell id="125" value="open_none" style="whiteSpace=wrap;html=1;fillColor=#f5f5f5;strokeColor=#666666;fontColor=#000000;gradient=#b3b3b3;ellipse" vertex="1" parent="node_root_V84">
          <mxGeometry x="180" y="610" width="150" height="100" as="geometry"/>
        </mxCell>
        <mxCell id="26" value="skewed_dash" style="whiteSpace=wrap;html=1;fillColor=#f5f5f5;strokeColor=#666666;fontColor=#000000;gradient=#b3b3b3;ellipse" vertex="1" parent="node_root_V84">
          <mxGeometry x="375" y="610" width="100" height="100" as="geometry"/>
        </mxCell>
        <mxCell id="126" value="skewed_dash" style="whiteSpace=wrap;html=1;fillColor=#f5f5f5;strokeColor=#666666;fontColor=#000000;gradient=#b3b3b3;ellipse" vertex="1" parent="node_root_V84">
          <mxGeometry x="520" y="610" width="150" height="100" as="geometry"/>
        </mxCell>
        <mxCell id="27" value="er_many" style="whiteSpace=wrap;html=1;fillColor=#f5f5f5;strokeColor=#666666;fontColor=#000000;gradient=#b3b3b3;ellipse" vertex="1" parent="node_root_V84">
          <mxGeometry x="715" y="610" width="100" height="100" as="geometry"/>
        </mxCell>
        <mxCell id="127" value="er_many" style="whiteSpace=wrap;html=1;fillColor=#f5f5f5;strokeColor=#666666;fontColor=#000000;gradient=#b3b3b3;ellipse" vertex="1" parent="node_root_V84">
          <mxGeometry x="860" y="610" width="150" height="100" as="geometry"/>
        </mxCell>
        <mxCell id="28" value="er_one" style="whiteSpace=wrap;html=1;fillColor=#f5f5f5;strokeColor=#666666;fontColor=#000000;gradient=#b3b3b3;ellipse" vertex="1" parent="node_root_V84">
          <mxGeometry x="1055" y="610" width="100" height="100" as="geometry"/>
        </mxCell>
        <mxCell id="128" value="er_one" style="whiteSpace=wrap;html=1;fillColor=#f5f5f5;strokeColor=#666666;fontColor=#000000;gradient=#b3b3b3;ellipse" vertex="1" parent="node_root_V84">
          <mxGeometry x="1200" y="610" width="150" height="100" as="geometry"/>
        </mxCell>
        <mxCell id="29" value="er_one_optional" style="whiteSpace=wrap;html=1;fillColor=#f5f5f5;strokeColor=#666666;fontColor=#000000;gradient=#b3b3b3;ellipse" vertex="1" parent="node_root_V84">
          <mxGeometry x="1395" y="610" width="100" height="100" as="geometry"/>
        </mxCell>
        <mxCell id="129" value="er_one_optional" style="whiteSpace=wrap;html=1;fillColor=#f5f5f5;strokeColor=#666666;fontColor=#000000;gradient=#b3b3b3;ellipse" vertex="1" parent="node_root_V84">
          <mxGeometry x="1540" y="610" width="150" height="100" as="geometry"/>
        </mxCell>
        <mxCell id="30" value="er_one_mandatory" style="whiteSpace=wrap;html=1;fillColor=#f5f5f5;strokeColor=#666666;fontColor=#000000;gradient=#b3b3b3;ellipse" vertex="1" parent="node_root_V84">
          <mxGeometry x="35" y="730" width="100" height="100" as="geometry"/>
        </mxCell>
        <mxCell id="130" value="er_one_mandatory" style="whiteSpace=wrap;html=1;fillColor=#f5f5f5;strokeColor=#666666;fontColor=#000000;gradient=#b3b3b3;ellipse" vertex="1" parent="node_root_V84">
          <mxGeometry x="180" y="730" width="150" height="100" as="geometry"/>
        </mxCell>
        <mxCell id="31" value="er_many_optional" style="whiteSpace=wrap;html=1;fillColor=#f5f5f5;strokeColor=#666666;fontColor=#000000;gradient=#b3b3b3;ellipse" vertex="1" parent="node_root_V84">
          <mxGeometry x="375" y="730" width="100" height="100" as="geometry"/>
        </mxCell>
        <mxCell id="131" value="er_many_optional" style="whiteSpace=wrap;html=1;fillColor=#f5f5f5;strokeColor=#666666;fontColor=#000000;gradient=#b3b3b3;ellipse" vertex="1" parent="node_root_V84">
          <mxGeometry x="520" y="730" width="150" height="100" as="geometry"/>
        </mxCell>
        <mxCell id="32" value="er_many_mandatory" style="whiteSpace=wrap;html=1;fillColor=#f5f5f5;strokeColor=#666666;fontColor=#000000;gradient=#b3b3b3;ellipse" vertex="1" parent="node_root_V84">
          <mxGeometry x="715" y="730" width="100" height="100" as="geometry"/>
        </mxCell>
        <mxCell id="132" value="er_many_mandatory" style="whiteSpace=wrap;html=1;fillColor=#f5f5f5;strokeColor=#666666;fontColor=#000000;gradient=#b3b3b3;ellipse" vertex="1" parent="node_root_V84">
          <mxGeometry x="860" y="730" width="150" height="100" as="geometry"/>
        </mxCell>
        <mxCell id="33" value="async" style="whiteSpace=wrap;html=1;fillColor=#f5f5f5;strokeColor=#666666;fontColor=#000000;gradient=#b3b3b3;ellipse" vertex="1" parent="node_root_V84">
          <mxGeometry x="1055" y="730" width="100" height="100" as="geometry"/>
        </mxCell>
        <mxCell id="133" value="async" style="whiteSpace=wrap;html=1;fillColor=#f5f5f5;strokeColor=#666666;fontColor=#000000;gradient=#b3b3b3;ellipse" vertex="1" parent="node_root_V84">
          <mxGeometry x="1200" y="730" width="150" height="100" as="geometry"/>
        </mxCell>
        <mxCell id="V84-70" value="" style="edgeStyle=none;exitX=1;exitY=0.5;exitDx=0;exitDy=0;entryX=0;entryY=0.5;entryDx=0;entryDy=0;startArrow=none;startFill=1;endArrow=none;endFill=1;whiteSpace=wrap;html=1;fillColor=#f5f5f5;strokeColor=#666666" parent="node_root_V84" source="0" target="100" edge="1">
          <mxGeometry relative="1" as="geometry"/>
        </mxCell>
        <mxCell id="V84-71" value="" style="edgeStyle=none;exitX=1;exitY=0.5;exitDx=0;exitDy=0;entryX=0;entryY=0.5;entryDx=0;entryDy=0;startArrow=box;startFill=1;endArrow=box;endFill=1;whiteSpace=wrap;html=1;fillColor=#f5f5f5;strokeColor=#666666" parent="node_root_V84" source="1" target="101" edge="1">
          <mxGeometry relative="1" as="geometry"/>
        </mxCell>
        <mxCell id="V84-72" value="" style="edgeStyle=none;exitX=1;exitY=0.5;exitDx=0;exitDy=0;entryX=0;entryY=0.5;entryDx=0;entryDy=0;startArrow=box;startFill=0;endArrow=box;endFill=0;whiteSpace=wrap;html=1;fillColor=#f5f5f5;strokeColor=#666666" parent="node_root_V84" source="2" target="102" edge="1">
          <mxGeometry relative="1" as="geometry"/>
        </mxCell>
        <mxCell id="V84-73" value="" style="edgeStyle=none;exitX=1;exitY=0.5;exitDx=0;exitDy=0;entryX=0;entryY=0.5;entryDx=0;entryDy=0;startArrow=open;startFill=1;endArrow=open;endFill=1;whiteSpace=wrap;html=1;fillColor=#f5f5f5;strokeColor=#666666" parent="node_root_V84" source="3" target="103" edge="1">
          <mxGeometry relative="1" as="geometry"/>
        </mxCell>
        <mxCell id="V84-74" value="" style="edgeStyle=none;exitX=1;exitY=0.5;exitDx=0;exitDy=0;entryX=0;entryY=0.5;entryDx=0;entryDy=0;startArrow=openThin;startFill=1;endArrow=openThin;endFill=1;whiteSpace=wrap;html=1;fillColor=#f5f5f5;strokeColor=#666666" parent="node_root_V84" source="4" target="104" edge="1">
          <mxGeometry relative="1" as="geometry"/>
        </mxCell>
        <mxCell id="V84-75" value="" style="edgeStyle=none;exitX=1;exitY=0.5;exitDx=0;exitDy=0;entryX=0;entryY=0.5;entryDx=0;entryDy=0;startArrow=block;startFill=1;endArrow=block;endFill=1;whiteSpace=wrap;html=1;fillColor=#f5f5f5;strokeColor=#666666" parent="node_root_V84" source="5" target="105" edge="1">
          <mxGeometry relative="1" as="geometry"/>
        </mxCell>
        <mxCell id="V84-76" value="" style="edgeStyle=none;exitX=1;exitY=0.5;exitDx=0;exitDy=0;entryX=0;entryY=0.5;entryDx=0;entryDy=0;startArrow=block;startFill=0;endArrow=block;endFill=0;whiteSpace=wrap;html=1;fillColor=#f5f5f5;strokeColor=#666666" parent="node_root_V84" source="6" target="106" edge="1">
          <mxGeometry relative="1" as="geometry"/>
        </mxCell>
        <mxCell id="V84-77" value="" style="edgeStyle=none;exitX=1;exitY=0.5;exitDx=0;exitDy=0;entryX=0;entryY=0.5;entryDx=0;entryDy=0;startArrow=blockThin;startFill=1;endArrow=blockThin;endFill=1;whiteSpace=wrap;html=1;fillColor=#f5f5f5;strokeColor=#666666" parent="node_root_V84" source="7" target="107" edge="1">
          <mxGeometry relative="1" as="geometry"/>
        </mxCell>
        <mxCell id="V84-78" value="" style="edgeStyle=none;exitX=1;exitY=0.5;exitDx=0;exitDy=0;entryX=0;entryY=0.5;entryDx=0;entryDy=0;startArrow=blockThin;startFill=0;endArrow=blockThin;endFill=0;whiteSpace=wrap;html=1;fillColor=#f5f5f5;strokeColor=#666666" parent="node_root_V84" source="8" target="108" edge="1">
          <mxGeometry relative="1" as="geometry"/>
        </mxCell>
        <mxCell id="V84-79" value="" style="edgeStyle=none;exitX=1;exitY=0.5;exitDx=0;exitDy=0;entryX=0;entryY=0.5;entryDx=0;entryDy=0;startArrow=doubleBlock;startFill=1;endArrow=doubleBlock;endFill=1;whiteSpace=wrap;html=1;fillColor=#f5f5f5;strokeColor=#666666" parent="node_root_V84" source="9" target="109" edge="1">
          <mxGeometry relative="1" as="geometry"/>
        </mxCell>
        <mxCell id="V84-80" value="" style="edgeStyle=none;exitX=1;exitY=0.5;exitDx=0;exitDy=0;entryX=0;entryY=0.5;entryDx=0;entryDy=0;startArrow=doubleBlock;startFill=0;endArrow=doubleBlock;endFill=0;whiteSpace=wrap;html=1;fillColor=#f5f5f5;strokeColor=#666666" parent="node_root_V84" source="10" target="110" edge="1">
          <mxGeometry relative="1" as="geometry"/>
        </mxCell>
        <mxCell id="V84-81" value="" style="edgeStyle=none;exitX=1;exitY=0.5;exitDx=0;exitDy=0;entryX=0;entryY=0.5;entryDx=0;entryDy=0;startArrow=diamond;startFill=1;endArrow=diamond;endFill=1;whiteSpace=wrap;html=1;fillColor=#f5f5f5;strokeColor=#666666" parent="node_root_V84" source="11" target="111" edge="1">
          <mxGeometry relative="1" as="geometry"/>
        </mxCell>
        <mxCell id="V84-82" value="" style="edgeStyle=none;exitX=1;exitY=0.5;exitDx=0;exitDy=0;entryX=0;entryY=0.5;entryDx=0;entryDy=0;startArrow=diamond;startFill=0;endArrow=diamond;endFill=0;whiteSpace=wrap;html=1;fillColor=#f5f5f5;strokeColor=#666666" parent="node_root_V84" source="12" target="112" edge="1">
          <mxGeometry relative="1" as="geometry"/>
        </mxCell>
        <mxCell id="V84-83" value="" style="edgeStyle=none;exitX=1;exitY=0.5;exitDx=0;exitDy=0;entryX=0;entryY=0.5;entryDx=0;entryDy=0;startArrow=diamondThin;startFill=1;endArrow=diamondThin;endFill=1;whiteSpace=wrap;html=1;fillColor=#f5f5f5;strokeColor=#666666" parent="node_root_V84" source="13" target="113" edge="1">
          <mxGeometry relative="1" as="geometry"/>
        </mxCell>
        <mxCell id="V84-84" value="" style="edgeStyle=none;exitX=1;exitY=0.5;exitDx=0;exitDy=0;entryX=0;entryY=0.5;entryDx=0;entryDy=0;startArrow=diamondThin;startFill=0;endArrow=diamondThin;endFill=0;whiteSpace=wrap;html=1;fillColor=#f5f5f5;strokeColor=#666666" parent="node_root_V84" source="14" target="114" edge="1">
          <mxGeometry relative="1" as="geometry"/>
        </mxCell>
        <mxCell id="V84-85" value="" style="edgeStyle=none;exitX=1;exitY=0.5;exitDx=0;exitDy=0;entryX=0;entryY=0.5;entryDx=0;entryDy=0;startArrow=oval;startFill=1;endArrow=oval;endFill=1;whiteSpace=wrap;html=1;fillColor=#f5f5f5;strokeColor=#666666" parent="node_root_V84" source="15" target="115" edge="1">
          <mxGeometry relative="1" as="geometry"/>
        </mxCell>
        <mxCell id="V84-86" value="" style="edgeStyle=none;exitX=1;exitY=0.5;exitDx=0;exitDy=0;entryX=0;entryY=0.5;entryDx=0;entryDy=0;startArrow=oval;startFill=0;endArrow=oval;endFill=0;whiteSpace=wrap;html=1;fillColor=#f5f5f5;strokeColor=#666666" parent="node_root_V84" source="16" target="116" edge="1">
          <mxGeometry relative="1" as="geometry"/>
        </mxCell>
        <mxCell id="V84-87" value="" style="edgeStyle=none;exitX=1;exitY=0.5;exitDx=0;exitDy=0;entryX=0;entryY=0.5;entryDx=0;entryDy=0;startArrow=halfCircle;startFill=1;endArrow=halfCircle;endFill=1;whiteSpace=wrap;html=1;fillColor=#f5f5f5;strokeColor=#666666" parent="node_root_V84" source="17" target="117" edge="1">
          <mxGeometry relative="1" as="geometry"/>
        </mxCell>
        <mxCell id="V84-88" value="" style="edgeStyle=none;exitX=1;exitY=0.5;exitDx=0;exitDy=0;entryX=0;entryY=0.5;entryDx=0;entryDy=0;startArrow=circlePlus;startFill=1;endArrow=circlePlus;endFill=1;whiteSpace=wrap;html=1;fillColor=#f5f5f5;strokeColor=#666666" parent="node_root_V84" source="18" target="118" edge="1">
          <mxGeometry relative="1" as="geometry"/>
        </mxCell>
        <mxCell id="V84-89" value="" style="edgeStyle=none;exitX=1;exitY=0.5;exitDx=0;exitDy=0;entryX=0;entryY=0.5;entryDx=0;entryDy=0;startArrow=circlePlus;startFill=0;endArrow=circlePlus;endFill=0;whiteSpace=wrap;html=1;fillColor=#f5f5f5;strokeColor=#666666" parent="node_root_V84" source="19" target="119" edge="1">
          <mxGeometry relative="1" as="geometry"/>
        </mxCell>
        <mxCell id="V84-90" value="" style="edgeStyle=none;exitX=1;exitY=0.5;exitDx=0;exitDy=0;entryX=0;entryY=0.5;entryDx=0;entryDy=0;startArrow=cross;startFill=1;endArrow=cross;endFill=1;whiteSpace=wrap;html=1;fillColor=#f5f5f5;strokeColor=#666666" parent="node_root_V84" source="20" target="120" edge="1">
          <mxGeometry relative="1" as="geometry"/>
        </mxCell>
        <mxCell id="V84-91" value="" style="edgeStyle=none;exitX=1;exitY=0.5;exitDx=0;exitDy=0;entryX=0;entryY=0.5;entryDx=0;entryDy=0;startArrow=classicThin;startFill=1;endArrow=classicThin;endFill=1;whiteSpace=wrap;html=1;fillColor=#f5f5f5;strokeColor=#666666" parent="node_root_V84" source="21" target="121" edge="1">
          <mxGeometry relative="1" as="geometry"/>
        </mxCell>
        <mxCell id="V84-92" value="" style="edgeStyle=none;exitX=1;exitY=0.5;exitDx=0;exitDy=0;entryX=0;entryY=0.5;entryDx=0;entryDy=0;startArrow=classicThin;startFill=0;endArrow=classicThin;endFill=0;whiteSpace=wrap;html=1;fillColor=#f5f5f5;strokeColor=#666666" parent="node_root_V84" source="22" target="122" edge="1">
          <mxGeometry relative="1" as="geometry"/>
        </mxCell>
        <mxCell id="V84-93" value="" style="edgeStyle=none;exitX=1;exitY=0.5;exitDx=0;exitDy=0;entryX=0;entryY=0.5;entryDx=0;entryDy=0;startArrow=classic;startFill=1;endArrow=classic;endFill=1;whiteSpace=wrap;html=1;fillColor=#f5f5f5;strokeColor=#666666" parent="node_root_V84" source="23" target="123" edge="1">
          <mxGeometry relative="1" as="geometry"/>
        </mxCell>
        <mxCell id="V84-94" value="" style="edgeStyle=none;exitX=1;exitY=0.5;exitDx=0;exitDy=0;entryX=0;entryY=0.5;entryDx=0;entryDy=0;startArrow=classic;startFill=0;endArrow=classic;endFill=0;whiteSpace=wrap;html=1;fillColor=#f5f5f5;strokeColor=#666666" parent="node_root_V84" source="24" target="124" edge="1">
          <mxGeometry relative="1" as="geometry"/>
        </mxCell>
        <mxCell id="V84-95" value="" style="edgeStyle=none;exitX=1;exitY=0.5;exitDx=0;exitDy=0;entryX=0;entryY=0.5;entryDx=0;entryDy=0;startArrow=none;startFill=0;endArrow=none;endFill=0;whiteSpace=wrap;html=1;fillColor=#f5f5f5;strokeColor=#666666" parent="node_root_V84" source="25" target="125" edge="1">
          <mxGeometry relative="1" as="geometry"/>
        </mxCell>
        <mxCell id="V84-96" value="" style="edgeStyle=none;exitX=1;exitY=0.5;exitDx=0;exitDy=0;entryX=0;entryY=0.5;entryDx=0;entryDy=0;startArrow=dash;startFill=1;endArrow=dash;endFill=1;whiteSpace=wrap;html=1;fillColor=#f5f5f5;strokeColor=#666666" parent="node_root_V84" source="26" target="126" edge="1">
          <mxGeometry relative="1" as="geometry"/>
        </mxCell>
        <mxCell id="V84-97" value="" style="edgeStyle=none;exitX=1;exitY=0.5;exitDx=0;exitDy=0;entryX=0;entryY=0.5;entryDx=0;entryDy=0;startArrow=ERmany;startFill=1;endArrow=ERmany;endFill=1;whiteSpace=wrap;html=1;fillColor=#f5f5f5;strokeColor=#666666" parent="node_root_V84" source="27" target="127" edge="1">
          <mxGeometry relative="1" as="geometry"/>
        </mxCell>
        <mxCell id="V84-98" value="" style="edgeStyle=none;exitX=1;exitY=0.5;exitDx=0;exitDy=0;entryX=0;entryY=0.5;entryDx=0;entryDy=0;startArrow=ERone;startFill=1;endArrow=ERone;endFill=1;whiteSpace=wrap;html=1;fillColor=#f5f5f5;strokeColor=#666666" parent="node_root_V84" source="28" target="128" edge="1">
          <mxGeometry relative="1" as="geometry"/>
        </mxCell>
        <mxCell id="V84-99" value="" style="edgeStyle=none;exitX=1;exitY=0.5;exitDx=0;exitDy=0;entryX=0;entryY=0.5;entryDx=0;entryDy=0;startArrow=ERzeroToOne;startFill=1;endArrow=ERzeroToOne;endFill=1;whiteSpace=wrap;html=1;fillColor=#f5f5f5;strokeColor=#666666" parent="node_root_V84" source="29" target="129" edge="1">
          <mxGeometry relative="1" as="geometry"/>
        </mxCell>
        <mxCell id="V84-100" value="" style="edgeStyle=none;exitX=1;exitY=0.5;exitDx=0;exitDy=0;entryX=0;entryY=0.5;entryDx=0;entryDy=0;startArrow=ERmandOne;startFill=1;endArrow=ERmandOne;endFill=1;whiteSpace=wrap;html=1;fillColor=#f5f5f5;strokeColor=#666666" parent="node_root_V84" source="30" target="130" edge="1">
          <mxGeometry relative="1" as="geometry"/>
        </mxCell>
        <mxCell id="V84-101" value="" style="edgeStyle=none;exitX=1;exitY=0.5;exitDx=0;exitDy=0;entryX=0;entryY=0.5;entryDx=0;entryDy=0;startArrow=ERzeroToMany;startFill=0;endArrow=ERzeroToMany;endFill=0;whiteSpace=wrap;html=1;fillColor=#f5f5f5;strokeColor=#666666" parent="node_root_V84" source="31" target="131" edge="1">
          <mxGeometry relative="1" as="geometry"/>
        </mxCell>
        <mxCell id="V84-102" value="" style="edgeStyle=none;exitX=1;exitY=0.5;exitDx=0;exitDy=0;entryX=0;entryY=0.5;entryDx=0;entryDy=0;startArrow=ERoneToMany;startFill=0;endArrow=ERoneToMany;endFill=0;whiteSpace=wrap;html=1;fillColor=#f5f5f5;strokeColor=#666666" parent="node_root_V84" source="32" target="132" edge="1">
          <mxGeometry relative="1" as="geometry"/>
        </mxCell>
        <mxCell id="V84-103" value="" style="edgeStyle=none;exitX=1;exitY=0.5;exitDx=0;exitDy=0;entryX=0;entryY=0.5;entryDx=0;entryDy=0;startArrow=async;startFill=0;endArrow=async;endFill=0;whiteSpace=wrap;html=1;fillColor=#f5f5f5;strokeColor=#666666" parent="node_root_V84" source="33" target="133" edge="1">
          <mxGeometry relative="1" as="geometry"/>
        </mxCell>
      </root>
    </mxGraphModel>
  </diagram>
</mxfile>